<svg width="47" height="47" viewBox="0 0 47 47" fill="none" xmlns="http://www.w3.org/2000/svg">
<path d="M23.1328 46.9298C10.4009 46.9298 0.0625 36.4371 0.0625 23.5152C0.0625 10.5933 10.4009 0.100586 23.1328 0.100586C35.8647 0.100586 46.2031 10.5933 46.2031 23.5152C46.2031 36.4371 35.8647 46.9298 23.1328 46.9298ZM30.9115 14.0009C29.9807 14.0009 29.2162 14.7769 29.2162 15.7216C29.2162 16.6663 29.9807 17.4422 30.9115 17.4422C31.8423 17.4422 32.6069 16.6663 32.6069 15.7216C32.6069 14.7769 31.8423 14.0009 30.9115 14.0009ZM23.299 16.2276C19.3431 16.2276 16.1186 19.5003 16.1186 23.5152C16.1186 27.5301 19.3431 30.8027 23.299 30.8027C27.2549 30.8027 30.4794 27.5301 30.4794 23.5152C30.4794 19.5003 27.2549 16.2276 23.299 16.2276ZM23.299 28.1711C20.7726 28.1711 18.7115 26.0793 18.7115 23.5152C18.7115 20.9511 20.7726 18.8593 23.299 18.8593C25.8254 18.8593 27.8865 20.9511 27.8865 23.5152C27.8865 26.0793 25.8587 28.1711 23.299 28.1711ZM37.7927 17.4422C37.7927 12.5501 33.8701 8.56898 29.0499 8.56898H17.5148C12.6946 8.56898 8.77203 12.5501 8.77203 17.4422V29.1833C8.77203 34.0754 12.6946 38.0565 17.5148 38.0565H29.0499C33.8701 38.0565 37.7927 34.0754 37.7927 29.1833V17.4422ZM35.0336 29.1833C35.0336 32.5571 32.3409 35.29 29.0167 35.29H17.4816C14.1573 35.29 11.4647 32.5571 11.4647 29.1833V17.4422C11.4647 14.0684 14.1573 11.3355 17.4816 11.3355H29.0167C32.3409 11.3355 35.0336 14.0684 35.0336 17.4422V29.1833Z" fill="white"/>
</svg>
