<svg width="364" height="640" viewBox="0 0 364 640" fill="none" xmlns="http://www.w3.org/2000/svg">
<path opacity="0.23" d="M171.303 684.663L187.019 299.831L206.203 684.475L171.303 684.663Z" fill="white"/>
<path opacity="0.23" d="M202.698 -85L187.019 299.831L167.797 -84.8121L202.698 -85Z" fill="white"/>
<path opacity="0.23" d="M238.578 681.507L187.019 299.831L272.914 675.307L238.578 681.507Z" fill="white"/>
<path opacity="0.23" d="M135.459 -81.8439L187.019 299.831L101.086 -75.6442L135.459 -81.8439Z" fill="white"/>
<path opacity="0.23" d="M304.272 666.778L187.019 299.831L337.024 654.754L304.272 666.778Z" fill="white"/>
<path opacity="0.23" d="M69.728 -67.1149L187.019 299.831L36.9756 -55.0912L69.728 -67.1149Z" fill="white"/>
<path opacity="0.23" d="M366.422 640.927L187.019 299.831L396.574 623.38L366.422 640.927Z" fill="white"/>
<path opacity="0.23" d="M7.61529 -41.264L187.019 299.831L-22.5742 -23.717L7.61529 -41.264Z" fill="white"/>
<path opacity="0.23" d="M423.107 604.668L187.019 299.831L449.754 582.199L423.107 604.668Z" fill="white"/>
<path opacity="0.23" d="M-49.0701 -5.00525L187.019 299.831L-75.7168 17.4639L-49.0701 -5.00525Z" fill="white"/>
<path opacity="0.23" d="M472.595 559.166L187.02 299.831L494.945 532.414L472.595 559.166Z" fill="white"/>
<path opacity="0.23" d="M-98.5939 40.4967L187.019 299.831L-120.906 67.2493L-98.5939 40.4967Z" fill="white"/>
<path opacity="0.23" d="M513.45 505.811L187.019 299.831L530.75 475.564L513.45 505.811Z" fill="white"/>
<path opacity="0.23" d="M-139.45 93.8516L187.018 299.831L-156.75 124.099L-139.45 93.8516Z" fill="white"/>
<path opacity="0.23" d="M544.356 446.144L187.02 299.831L556.153 413.38L544.356 446.144Z" fill="white"/>
<path opacity="0.23" d="M-170.355 153.519L187.019 299.831L-182.152 186.283L-170.355 153.519Z" fill="white"/>
<path opacity="0.23" d="M564.407 382.081L187.019 299.831L570.324 347.776L564.407 382.081Z" fill="white"/>
<path opacity="0.23" d="M-190.407 217.582L187.019 299.831L-196.324 251.887L-190.407 217.582Z" fill="white"/>
<path opacity="0.23" d="M573 315.5L187.019 299.832L572.849 280.669L573 315.5Z" fill="white"/>
<path opacity="0.23" d="M-199 284.163L187.019 299.832L-198.849 318.994L-199 284.163Z" fill="white"/>
<path opacity="0.23" d="M569.871 248.43L187.019 299.831L563.652 214.163L569.871 248.43Z" fill="white"/>
<path opacity="0.23" d="M-195.872 351.233L187.019 299.831L-189.653 385.5L-195.872 351.233Z" fill="white"/>
<path opacity="0.23" d="M555.097 182.939L187.019 299.832L542.999 150.288L555.097 182.939Z" fill="white"/>
<path opacity="0.23" d="M-181.098 416.724L187.018 299.831L-168.999 449.413L-181.098 416.724Z" fill="white"/>
<path opacity="0.23" d="M529.13 120.98L187.02 299.832L511.529 90.9209L529.13 120.98Z" fill="white"/>
<path opacity="0.23" d="M-155.129 478.683L187.019 299.831L-137.528 508.742L-155.129 478.683Z" fill="white"/>
<path opacity="0.23" d="M492.797 64.4689L187.02 299.831L470.221 37.9042L492.797 64.4689Z" fill="white"/>
<path opacity="0.23" d="M-118.796 535.194L187.019 299.831L-96.2197 561.759L-118.796 535.194Z" fill="white"/>
<path opacity="0.23" d="M447.155 15.0969L187.02 299.831L420.282 -7.14685L447.155 15.0969Z" fill="white"/>
<path opacity="0.23" d="M-73.1533 584.566L187.019 299.832L-46.2805 606.81L-73.1533 584.566Z" fill="white"/>
<path opacity="0.23" d="M393.596 -25.5957L187.019 299.831L363.294 -42.8796L393.596 -25.5957Z" fill="white"/>
<path opacity="0.23" d="M-19.5967 625.259L187.019 299.831L10.7059 642.543L-19.5967 625.259Z" fill="white"/>
<path opacity="0.23" d="M333.783 -56.4062L187.019 299.831L300.917 -68.1669L333.783 -56.4062Z" fill="white"/>
<path opacity="0.23" d="M40.2168 656.069L187.018 299.831L73.0823 667.83L40.2168 656.069Z" fill="white"/>
<path opacity="0.23" d="M269.484 -76.4332L187.019 299.831L235.073 -82.2947L269.484 -76.4332Z" fill="white"/>
<path opacity="0.23" d="M104.516 676.096L187.019 299.831L138.926 681.958L104.516 676.096Z" fill="white"/>
</svg>
