<svg width="1400" height="832" viewBox="0 0 1400 832" fill="none" xmlns="http://www.w3.org/2000/svg">
<path opacity="0.23" d="M673.309 1315.8L707.332 458.898L748.863 1315.38L673.309 1315.8Z" fill="white"/>
<path opacity="0.23" d="M741.275 -398L707.333 458.898L665.721 -397.582L741.275 -398Z" fill="white"/>
<path opacity="0.23" d="M818.95 1308.77L707.332 458.898L893.28 1294.96L818.95 1308.77Z" fill="white"/>
<path opacity="0.23" d="M595.715 -390.972L707.332 458.898L521.303 -377.168L595.715 -390.972Z" fill="white"/>
<path opacity="0.23" d="M961.167 1275.97L707.334 458.898L1032.07 1249.2L961.167 1275.97Z" fill="white"/>
<path opacity="0.23" d="M453.419 -358.175L707.333 458.898L382.516 -331.403L453.419 -358.175Z" fill="white"/>
<path opacity="0.23" d="M1095.71 1218.41L707.332 458.898L1160.98 1179.34L1095.71 1218.41Z" fill="white"/>
<path opacity="0.23" d="M318.955 -300.614L707.333 458.898L253.6 -261.542L318.955 -300.614Z" fill="white"/>
<path opacity="0.23" d="M1218.42 1137.67L707.332 458.898L1276.11 1087.64L1218.42 1137.67Z" fill="white"/>
<path opacity="0.23" d="M196.24 -219.877L707.333 458.898L138.555 -169.845L196.24 -219.877Z" fill="white"/>
<path opacity="0.23" d="M1325.56 1036.35L707.334 458.898L1373.94 976.785L1325.56 1036.35Z" fill="white"/>
<path opacity="0.23" d="M89.029 -118.558L707.333 458.898L40.7266 -58.9888L89.029 -118.558Z" fill="white"/>
<path opacity="0.23" d="M1414 917.55L707.332 458.898L1451.45 850.2L1414 917.55Z" fill="white"/>
<path opacity="0.23" d="M0.581596 0.24585L707.332 458.898L-36.8691 67.5962L0.581596 0.24585Z" fill="white"/>
<path opacity="0.23" d="M1480.91 784.69L707.332 458.898L1506.44 711.734L1480.91 784.69Z" fill="white"/>
<path opacity="0.23" d="M-66.323 133.106L707.333 458.898L-91.8613 206.062L-66.323 133.106Z" fill="white"/>
<path opacity="0.23" d="M1524.31 642.041L707.332 458.898L1537.12 565.655L1524.31 642.041Z" fill="white"/>
<path opacity="0.23" d="M-109.73 275.755L707.333 458.898L-122.54 352.141L-109.73 275.755Z" fill="white"/>
<path opacity="0.23" d="M1542.92 493.787L707.332 458.898L1542.59 416.229L1542.92 493.787Z" fill="white"/>
<path opacity="0.23" d="M-128.333 424.01L707.332 458.898L-128.007 501.567L-128.333 424.01Z" fill="white"/>
<path opacity="0.23" d="M1536.15 344.444L707.334 458.898L1522.68 268.142L1536.15 344.444Z" fill="white"/>
<path opacity="0.23" d="M-121.561 573.352L707.333 458.898L-108.098 649.655L-121.561 573.352Z" fill="white"/>
<path opacity="0.23" d="M1504.16 198.616L707.332 458.898L1477.97 125.911L1504.16 198.616Z" fill="white"/>
<path opacity="0.23" d="M-89.5771 719.18L707.332 458.898L-63.3861 791.969L-89.5771 719.18Z" fill="white"/>
<path opacity="0.23" d="M1447.94 60.6523L707.334 458.898L1409.84 -6.27979L1447.94 60.6523Z" fill="white"/>
<path opacity="0.23" d="M-33.3594 857.144L707.333 458.898L4.74413 924.076L-33.3594 857.144Z" fill="white"/>
<path opacity="0.23" d="M1369.29 -65.1801L707.332 458.898L1320.41 -124.331L1369.29 -65.1801Z" fill="white"/>
<path opacity="0.23" d="M45.2949 982.976L707.333 458.898L94.1685 1042.13L45.2949 982.976Z" fill="white"/>
<path opacity="0.23" d="M1270.48 -175.116L707.334 458.898L1212.31 -224.646L1270.48 -175.116Z" fill="white"/>
<path opacity="0.23" d="M144.104 1092.91L707.333 458.898L202.279 1142.44L144.104 1092.91Z" fill="white"/>
<path opacity="0.23" d="M1154.54 -265.725L707.332 458.898L1088.94 -304.211L1154.54 -265.725Z" fill="white"/>
<path opacity="0.23" d="M260.045 1183.52L707.332 458.898L325.645 1222.01L260.045 1183.52Z" fill="white"/>
<path opacity="0.23" d="M1025.05 -334.331L707.332 458.898L953.903 -360.518L1025.05 -334.331Z" fill="white"/>
<path opacity="0.23" d="M389.531 1252.13L707.332 458.898L460.68 1278.31L389.531 1252.13Z" fill="white"/>
<path opacity="0.23" d="M885.858 -378.924L707.334 458.898L811.364 -391.976L885.858 -378.924Z" fill="white"/>
<path opacity="0.23" d="M528.729 1296.72L707.333 458.898L603.222 1309.77L528.729 1296.72Z" fill="white"/>
</svg>
