<svg width="13" height="29" viewBox="0 0 13 29" fill="none" xmlns="http://www.w3.org/2000/svg">
<path fill-rule="evenodd" clip-rule="evenodd" d="M2.93711 14.2944V27.7337C2.93711 27.9328 3.10321 28.0987 3.30254 28.0987H8.28573C8.48506 28.0987 8.65117 27.9328 8.65117 27.7337V14.0621H12.2723C12.4384 14.0621 12.6045 13.9294 12.6377 13.7303L12.9699 9.61554C13.0032 9.41644 12.837 9.25052 12.6045 9.25052H8.61794V6.33038C8.61794 5.63353 9.1827 5.10259 9.84713 5.10259H12.6377C12.837 5.10259 13.0031 4.93668 13.0031 4.73758V0.62283C13.0031 0.42373 12.837 0.257812 12.6377 0.257812H7.95352C5.19615 0.257812 2.93711 2.51429 2.93711 5.26851V9.25052H0.445513C0.246185 9.25052 0.0800781 9.41644 0.0800781 9.61554V13.7303C0.0800781 13.9294 0.246185 14.0953 0.445513 14.0953H2.93711V14.2944Z" fill="#EC1C2D"/>
</svg>
