<svg width="29" height="33" viewBox="0 0 29 33" fill="none" xmlns="http://www.w3.org/2000/svg">
<path d="M28.6295 9.50754C24.7426 9.50754 21.5866 6.35512 21.5866 2.47266H16.3044V22.8473C16.3044 25.2033 14.3776 27.1279 12.0189 27.1279C9.66019 27.1279 7.73336 25.2033 7.73336 22.8473C7.73336 20.4913 9.66019 18.5666 12.0189 18.5666C12.4508 18.5666 12.9823 18.633 13.381 18.7657V13.39C12.9491 13.3236 12.484 13.2905 12.0189 13.2905C6.73672 13.2905 2.45117 17.5711 2.45117 22.8473C2.45117 28.1235 6.73672 32.4041 12.0189 32.4041C17.3011 32.4041 21.5866 28.1235 21.5866 22.8473V12.0627C23.5135 13.6223 25.9386 14.5514 28.6295 14.5514V9.50754V9.50754Z" fill="#FF1352"/>
<path d="M27.1354 8.01438C23.2485 8.01438 20.0925 4.86195 20.0925 0.979492H14.8103V21.3541C14.8103 23.7101 12.8835 25.6348 10.5248 25.6348C8.16606 25.6348 6.23922 23.7101 6.23922 21.3541C6.23922 18.9981 8.16606 17.0735 10.5248 17.0735C10.9566 17.0735 11.4882 17.1398 11.8868 17.2726V11.8968C11.455 11.8305 10.9899 11.7973 10.5248 11.7973C5.24258 11.7973 0.957031 16.078 0.957031 21.3541C0.957031 26.6303 5.24258 30.9109 10.5248 30.9109C15.8069 30.9109 20.0925 26.6303 20.0925 21.3541V10.5695C22.0193 12.1291 24.4445 13.0583 27.1354 13.0583V8.01438V8.01438Z" fill="white"/>
<path d="M27.1346 9.34165C25.4403 8.97663 23.9785 7.98113 22.9819 6.65379C21.6198 5.65829 20.6564 4.19821 20.291 2.50586H16.3377V22.8805C16.3377 25.2365 14.4108 27.1612 12.0521 27.1612C10.4907 27.1612 9.09541 26.3316 8.36455 25.0706C7.10214 24.3074 6.2716 22.9469 6.2716 21.3872C6.2716 19.0312 8.19844 17.1066 10.5572 17.1066C10.989 17.1066 11.5206 17.1729 11.9192 17.3057V13.2905C6.70348 13.3568 2.48438 17.6043 2.48438 22.8473C2.48438 25.1038 3.28169 27.1943 4.57732 28.8203C6.20516 30.1145 8.2981 30.9109 10.5572 30.9109C15.8393 30.9109 20.1249 26.6302 20.1249 21.3541V10.5694C22.0517 12.1291 24.4769 13.0582 27.1678 13.0582V9.34165H27.1346Z" fill="#EC1C2D"/>
</svg>
