<svg width="28" height="20" viewBox="0 0 28 20" fill="none" xmlns="http://www.w3.org/2000/svg">
<path fill-rule="evenodd" clip-rule="evenodd" d="M26.81 1.855C26.0505 0.504 25.2263 0.2555 23.548 0.161C21.8715 0.04725 17.6557 0 14.0035 0C10.3442 0 6.12675 0.0472501 4.452 0.15925C2.77725 0.2555 1.95125 0.50225 1.18475 1.855C0.4025 3.20425 0 5.52825 0 9.61975V9.63375C0 13.7078 0.4025 16.0493 1.18475 17.3845C1.95125 18.7355 2.7755 18.9805 4.45025 19.0942C6.12675 19.1922 10.3442 19.25 14.0035 19.25C17.6557 19.25 21.8715 19.1922 23.5497 19.096C25.228 18.9822 26.0523 18.7373 26.8118 17.3863C27.601 16.051 28 13.7095 28 9.6355V9.6215C28 5.52825 27.601 3.20425 26.81 1.855Z" fill="#EC1C2D"/>
<path fill-rule="evenodd" clip-rule="evenodd" d="M10.5 14.875V4.375L19.25 9.625L10.5 14.875Z" fill="#FAFAFA"/>
</svg>
